<svg xmlns="http://www.w3.org/2000/svg" viewBox="42.519999999999996 56 489.97 455.21"> <svg xmlns="http://www.w3.org/2000/svg" xmlns:xlink="http://www.w3.org/1999/xlink" version="1.1" id="Layer_1" x="181" y="126" viewBox="279.0086669921875 279.77496337890625 441.98712158203125 440.52508544921875" xml:space="preserve" height="212" width="212" preserveAspectRatio="xMinYMin" enable-background="new 0 0 1000 1000" style="overflow: visible;"><path class="st0" d="M698,402.4c31.6,63.6,30.6,139.2-2.8,202.1c-0.2-0.8-0.5-1.6-0.7-2.4c-5-35.7-19.9-70.2-44.7-99.2   c-3.3-3.8-6.7-7.5-10.3-11.1c-75.9-75.9-199-75.9-275,0c-2.2,2.2-4.3,4.4-6.3,6.7c-26.8,29.4-43,65.2-48.5,102.2   c-0.8,2.8-1.6,5.6-2.3,8.5c-39.3-69.7-37.8-156.1,4.5-224.5c8.8-14.3,19.4-27.8,31.8-40.2c86.3-86.3,226.3-86.3,312.6,0   C673.7,361.9,687.6,381.5,698,402.4z" style="fill: #342EAD;"></path><path class="st1" d="M695.2,604.6c-0.1,0.2-0.2,0.4-0.3,0.5c-0.1-1-0.2-2-0.4-2.9C694.7,603,694.9,603.7,695.2,604.6z" style="fill: #29303F;"></path><path class="st2" d="M694.5,602.2c0.2,1,0.3,2,0.4,2.9c-10,18.7-22.9,36.2-38.6,52c-36.6,36.6-82.8,57.7-130.5,63.2V565.6   c41.3-4.2,81.5-21.6,113.8-52.2C665.4,537.3,684.7,567.8,694.5,602.2z" style="fill: #EBEDEC;"></path><path class="st3" d="M649.8,503c24.8,29,39.7,63.5,44.7,99.2c-9.8-34.3-29.1-64.9-55-88.7c1.3-1.2,2.6-2.5,3.9-3.8   C645.6,507.5,647.7,505.2,649.8,503z" style="fill: #CCCECD;"></path><circle class="st4" cx="500" cy="501.3" r="27.2" style="fill: #F2A51A;"></circle><path class="st2" d="M471.3,563.5v156.4c-46.7-6.1-91.7-27-127.6-62.8c-14.1-14.1-25.8-29.6-35.3-46c0.3-3.4,0.8-6.9,1.3-10.3   c10.5-35.6,31.2-67,58.7-91.1l0,0C397.6,538.8,433.6,556.7,471.3,563.5z" style="fill: #EBEDEC;"></path><path class="st3" d="M368.4,509.6c-27.6,24-48.3,55.5-58.7,91.1c5.5-37,21.6-72.7,48.5-102.2C361.4,502.3,364.8,506,368.4,509.6z" style="fill: #CCCECD;"></path><path class="st1" d="M309.7,600.7c-0.5,3.4-1,6.9-1.3,10.3c-0.3-0.6-0.7-1.2-1-1.8C308.1,606.3,308.9,603.5,309.7,600.7z" style="fill: #29303F;"></path></svg> <svg y="434" viewBox="0.550000011920929 2.9000000953674316 278.1700134277344 7.2099995613098145" x="148" height="7" width="278" style="overflow: visible;"><g fill="#000" style=""><path d="M1.36 10.11L0.55 10.11L0.55 2.92L6.55 2.92Q7.05 2.92 7.40 3.27Q7.75 3.63 7.75 4.12L7.75 4.12L7.75 6.23Q7.75 6.72 7.40 7.07Q7.05 7.43 6.55 7.43L6.55 7.43L5.45 7.43L7.71 10.10L7.71 10.11L6.64 10.11L4.39 7.43L1.36 7.42L1.36 10.11ZM1.75 6.61L1.75 6.61L6.55 6.61Q6.71 6.61 6.82 6.50Q6.93 6.39 6.93 6.23L6.93 6.23L6.93 4.12Q6.93 3.96 6.82 3.84Q6.71 3.73 6.55 3.73L6.55 3.73L1.75 3.73Q1.59 3.73 1.48 3.84Q1.36 3.96 1.36 4.12L1.36 4.12L1.36 6.23Q1.36 6.39 1.48 6.50Q1.59 6.61 1.75 6.61ZM22.40 10.11L15.83 10.11L15.83 2.91L22.40 2.91L22.40 3.72L16.64 3.72L16.64 6.10L21.27 6.10L21.27 6.92L16.64 6.92L16.64 9.30L22.40 9.30L22.40 10.11ZM36.50 10.11L30.50 10.11L30.50 2.91L36.19 2.91Q36.69 2.91 37.04 3.26Q37.39 3.61 37.39 4.11L37.39 4.11L37.39 5.64Q37.39 5.78 37.36 5.91Q37.32 6.05 37.26 6.17L37.26 6.17Q37.48 6.50 37.59 6.74Q37.70 6.98 37.70 7.23L37.70 7.23L37.70 8.91Q37.70 9.41 37.35 9.76Q37 10.11 36.50 10.11L36.50 10.11ZM31.70 9.30L31.70 9.30L36.50 9.30Q36.66 9.30 36.77 9.18Q36.89 9.07 36.89 8.91L36.89 8.91L36.89 7.23Q36.89 7.07 36.77 6.95Q36.66 6.84 36.50 6.84L36.50 6.84L31.70 6.84Q31.54 6.84 31.43 6.95Q31.31 7.07 31.31 7.23L31.31 7.23L31.31 8.91Q31.31 9.07 31.43 9.18Q31.54 9.30 31.70 9.30ZM31.70 6.03L31.70 6.03L36.19 6.03Q36.35 6.03 36.46 5.91Q36.57 5.80 36.57 5.64L36.57 5.64L36.57 4.11Q36.57 3.95 36.46 3.83Q36.35 3.72 36.19 3.72L36.19 3.72L31.70 3.72Q31.54 3.72 31.43 3.83Q31.31 3.95 31.31 4.11L31.31 4.11L31.31 5.64Q31.31 5.80 31.43 5.91Q31.54 6.03 31.70 6.03ZM52.38 10.11L45.81 10.11L45.81 2.91L52.38 2.91L52.38 3.72L46.62 3.72L46.62 6.10L51.25 6.10L51.25 6.92L46.62 6.92L46.62 9.30L52.38 9.30L52.38 10.11ZM67.66 10.11L60.46 10.11L60.46 2.90L61.27 2.90L61.27 9.30L67.66 9.30L67.66 10.11ZM82.45 10.11L75.25 10.11L75.25 2.90L76.06 2.90L76.06 9.30L82.45 9.30L82.45 10.11ZM90.81 10.11L89.99 10.11L89.99 2.91L90.81 2.91L90.81 10.11ZM105.15 10.11L100.35 10.11Q99.85 10.11 99.50 9.76Q99.15 9.41 99.15 8.91L99.15 8.91L99.15 4.11Q99.15 3.61 99.50 3.26Q99.85 2.91 100.35 2.91L100.35 2.91L105.15 2.91Q105.65 2.91 106.00 3.26Q106.35 3.61 106.35 4.11L106.35 4.11L106.35 8.91Q106.35 9.41 106.00 9.76Q105.65 10.11 105.15 10.11L105.15 10.11ZM100.35 9.30L100.35 9.30L105.15 9.30Q105.31 9.30 105.43 9.18Q105.54 9.07 105.54 8.91L105.54 8.91L105.54 4.11Q105.54 3.95 105.43 3.83Q105.31 3.72 105.15 3.72L105.15 3.72L100.35 3.72Q100.19 3.72 100.08 3.83Q99.96 3.95 99.96 4.11L99.96 4.11L99.96 8.91Q99.96 9.07 100.08 9.18Q100.19 9.30 100.35 9.30ZM120.43 10.11L115.63 10.11Q115.13 10.11 114.78 9.76Q114.43 9.41 114.43 8.91L114.43 8.91L114.43 2.91L115.24 2.91L115.24 8.91Q115.24 9.07 115.36 9.18Q115.47 9.30 115.63 9.30L115.63 9.30L120.43 9.30Q120.59 9.30 120.71 9.18Q120.82 9.07 120.82 8.91L120.82 8.91L120.82 2.91L121.63 2.91L121.63 8.91Q121.63 9.41 121.28 9.76Q120.93 10.11 120.43 10.11L120.43 10.11ZM135.68 10.11L130.88 10.11Q130.38 10.11 130.03 9.76Q129.68 9.41 129.68 8.91L129.68 8.91L129.68 8.63L130.49 8.63L130.49 8.91Q130.49 9.07 130.61 9.18Q130.72 9.30 130.88 9.30L130.88 9.30L135.68 9.30Q135.84 9.30 135.96 9.18Q136.07 9.07 136.07 8.91L136.07 8.91L136.07 7.30Q136.07 7.14 135.96 7.03Q135.84 6.92 135.68 6.92L135.68 6.92L130.88 6.92Q130.38 6.92 130.03 6.56Q129.68 6.21 129.68 5.72L129.68 5.72L129.68 4.11Q129.68 3.61 130.03 3.26Q130.38 2.91 130.88 2.91L130.88 2.91L135.68 2.91Q136.18 2.91 136.53 3.26Q136.88 3.61 136.88 4.11L136.88 4.11L136.88 4.39L136.07 4.39L136.07 4.11Q136.07 3.95 135.96 3.83Q135.84 3.72 135.68 3.72L135.68 3.72L130.88 3.72Q130.72 3.72 130.61 3.83Q130.49 3.95 130.49 4.11L130.49 4.11L130.49 5.72Q130.49 5.88 130.61 5.99Q130.72 6.10 130.88 6.10L130.88 6.10L135.68 6.10Q136.18 6.10 136.53 6.45Q136.88 6.81 136.88 7.30L136.88 7.30L136.88 8.91Q136.88 9.41 136.53 9.76Q136.18 10.11 135.68 10.11L135.68 10.11ZM160.62 10.11L155.82 10.11Q155.32 10.11 154.97 9.76Q154.62 9.41 154.62 8.91L154.62 8.91L154.62 8.63L155.43 8.63L155.43 8.91Q155.43 9.07 155.55 9.18Q155.66 9.30 155.82 9.30L155.82 9.30L160.62 9.30Q160.78 9.30 160.90 9.18Q161.01 9.07 161.01 8.91L161.01 8.91L161.01 7.30Q161.01 7.14 160.90 7.03Q160.78 6.92 160.62 6.92L160.62 6.92L155.82 6.92Q155.32 6.92 154.97 6.56Q154.62 6.21 154.62 5.72L154.62 5.72L154.62 4.11Q154.62 3.61 154.97 3.26Q155.32 2.91 155.82 2.91L155.82 2.91L160.62 2.91Q161.12 2.91 161.47 3.26Q161.82 3.61 161.82 4.11L161.82 4.11L161.82 4.39L161.01 4.39L161.01 4.11Q161.01 3.95 160.90 3.83Q160.78 3.72 160.62 3.72L160.62 3.72L155.82 3.72Q155.66 3.72 155.55 3.83Q155.43 3.95 155.43 4.11L155.43 4.11L155.43 5.72Q155.43 5.88 155.55 5.99Q155.66 6.10 155.82 6.10L155.82 6.10L160.62 6.10Q161.12 6.10 161.47 6.45Q161.82 6.81 161.82 7.30L161.82 7.30L161.82 8.91Q161.82 9.41 161.47 9.76Q161.12 10.11 160.62 10.11L160.62 10.11ZM175.87 10.11L171.07 10.11Q170.57 10.11 170.22 9.76Q169.87 9.41 169.87 8.91L169.87 8.91L169.87 4.11Q169.87 3.61 170.22 3.26Q170.57 2.91 171.07 2.91L171.07 2.91L175.87 2.91Q176.37 2.91 176.72 3.26Q177.07 3.61 177.07 4.11L177.07 4.11L177.07 8.91Q177.07 9.41 176.72 9.76Q176.37 10.11 175.87 10.11L175.87 10.11ZM171.07 9.30L171.07 9.30L175.87 9.30Q176.03 9.30 176.15 9.18Q176.26 9.07 176.26 8.91L176.26 8.91L176.26 4.11Q176.26 3.95 176.15 3.83Q176.03 3.72 175.87 3.72L175.87 3.72L171.07 3.72Q170.91 3.72 170.80 3.83Q170.68 3.95 170.68 4.11L170.68 4.11L170.68 8.91Q170.68 9.07 170.80 9.18Q170.91 9.30 171.07 9.30ZM186 10.11L185.19 10.11L185.19 2.91L191.76 2.91L191.76 3.72L186 3.72L186 6.10L190.63 6.10L190.63 6.92L186 6.92L186 10.11ZM203.15 10.11L202.34 10.11L202.34 3.72L199.14 3.72L199.14 2.91L206.34 2.91L206.34 3.72L203.15 3.72L203.15 10.11ZM217.20 10.11L216.50 10.11L213.88 2.91L214.74 2.91L216.85 8.69L218.95 2.91L219.93 2.91L222.04 8.69L224.13 2.91L225.01 2.91L222.39 10.11L221.68 10.11L219.44 3.96L217.20 10.11ZM233.44 10.11L232.63 10.11L232.63 4.11Q232.63 3.61 232.98 3.26Q233.33 2.91 233.83 2.91L233.83 2.91L238.63 2.91Q239.13 2.91 239.48 3.26Q239.83 3.61 239.83 4.11L239.83 4.11L239.83 10.11L239.02 10.11L239.02 7.48L233.44 7.48L233.44 10.11ZM233.44 4.11L233.44 6.67L239.02 6.67L239.02 4.11Q239.02 3.95 238.90 3.83Q238.79 3.72 238.63 3.72L238.63 3.72L233.83 3.72Q233.67 3.72 233.55 3.83Q233.44 3.95 233.44 4.11L233.44 4.11ZM248.77 10.11L247.96 10.11L247.96 2.92L253.96 2.92Q254.46 2.92 254.81 3.27Q255.16 3.63 255.16 4.12L255.16 4.12L255.16 6.23Q255.16 6.72 254.81 7.07Q254.46 7.43 253.96 7.43L253.96 7.43L252.86 7.43L255.12 10.10L255.12 10.11L254.05 10.11L251.80 7.43L248.77 7.42L248.77 10.11ZM249.16 6.61L249.16 6.61L253.96 6.61Q254.12 6.61 254.23 6.50Q254.34 6.39 254.34 6.23L254.34 6.23L254.34 4.12Q254.34 3.96 254.23 3.84Q254.12 3.73 253.96 3.73L253.96 3.73L249.16 3.73Q249.00 3.73 248.88 3.84Q248.77 3.96 248.77 4.12L248.77 4.12L248.77 6.23Q248.77 6.39 248.88 6.50Q249.00 6.61 249.16 6.61ZM269.81 10.11L263.24 10.11L263.24 2.91L269.81 2.91L269.81 3.72L264.05 3.72L264.05 6.10L268.68 6.10L268.68 6.92L264.05 6.92L264.05 9.30L269.81 9.30L269.81 10.11ZM278.72 8.08L277.90 8.08L277.90 2.91L278.72 2.91L278.72 8.08ZM278.72 10.11L277.90 10.11L277.90 9.29L278.72 9.29L278.72 10.11Z" transform="translate(0, 0)"></path></g></svg> <svg y="372" viewBox="2.3399999141693115 10.84000015258789 349.9700012207031 34.650001525878906" x="112" height="34" width="349" style="overflow: visible;"><g fill="#000" style=""><path d="M6.03 45.49L2.34 45.49L2.34 13.09L6.03 13.09L6.03 45.49ZM15.75 45.49L12.06 45.49L12.06 19.39L33.21 19.39Q35.46 19.39 37.06 20.99Q38.66 22.59 38.66 24.84L38.66 24.84L38.66 45.49L34.96 45.49L34.96 24.84Q34.96 24.12 34.45 23.60Q33.93 23.08 33.21 23.08L33.21 23.08L17.55 23.08Q16.83 23.08 16.29 23.60Q15.75 24.12 15.75 24.84L15.75 24.84L15.75 45.49ZM47.07 45.49L43.38 45.49L43.38 19.39L64.53 19.39Q66.78 19.39 68.38 20.99Q69.97 22.59 69.97 24.84L69.97 24.84L69.97 45.49L66.28 45.49L66.28 24.84Q66.28 24.12 65.77 23.60Q65.25 23.08 64.53 23.08L64.53 23.08L48.87 23.08Q48.15 23.08 47.61 23.60Q47.07 24.12 47.07 24.84L47.07 24.84L47.07 45.49ZM95.00 45.49L79.34 45.49Q77.09 45.49 75.49 43.90Q73.89 42.30 73.89 40.05L73.89 40.05L73.89 24.84Q73.89 22.59 75.49 20.99Q77.09 19.39 79.34 19.39L79.34 19.39L95.00 19.39Q97.29 19.39 98.89 20.99Q100.49 22.59 100.49 24.84L100.49 24.84L100.49 40.05Q100.49 42.30 98.89 43.90Q97.29 45.49 95.00 45.49L95.00 45.49ZM79.34 41.80L79.34 41.80L95.00 41.80Q95.72 41.80 96.23 41.29Q96.75 40.77 96.75 40.05L96.75 40.05L96.75 24.84Q96.75 24.12 96.23 23.60Q95.72 23.08 95.00 23.08L95.00 23.08L79.34 23.08Q78.62 23.08 78.10 23.60Q77.58 24.12 77.58 24.84L77.58 24.84L77.58 40.05Q77.58 40.77 78.10 41.29Q78.62 41.80 79.34 41.80ZM108.09 45.49L103.23 45.49L103.23 45.45L114.12 32.22L103.23 19.44L103.23 19.39L108.09 19.39L116.55 29.29L125.06 19.39L129.87 19.39L129.87 19.44L118.98 32.22L129.92 45.45L129.92 45.49L125.06 45.49L116.55 35.05L108.09 45.49ZM138.33 45.49L134.64 45.49L134.64 19.39L138.33 19.39L138.33 45.49ZM138.33 14.54L134.64 14.54L134.64 10.84L138.33 10.84L138.33 14.54ZM165.15 45.49L149.49 45.49Q147.24 45.49 145.64 43.90Q144.05 42.30 144.05 40.05L144.05 40.05L144.05 19.39L147.74 19.39L147.74 40.05Q147.74 40.77 148.25 41.29Q148.77 41.80 149.49 41.80L149.49 41.80L165.15 41.80Q165.87 41.80 166.41 41.29Q166.95 40.77 166.95 40.05L166.95 40.05L166.95 19.39L170.64 19.39L170.64 40.05Q170.64 42.30 169.04 43.90Q167.45 45.49 165.15 45.49L165.15 45.49ZM178.20 45.49L174.47 45.49L174.47 19.39L208.94 19.39Q211.23 19.39 212.81 20.99Q214.38 22.59 214.38 24.84L214.38 24.84L214.38 45.49L210.74 45.49L210.74 24.84Q210.74 24.12 210.20 23.60Q209.66 23.08 208.94 23.08L208.94 23.08L198.09 23.08Q197.37 23.08 196.85 23.60Q196.34 24.12 196.34 24.84L196.34 24.84L196.34 45.49L192.60 45.49L192.60 24.84Q192.60 24.12 192.08 23.60Q191.57 23.08 190.85 23.08L190.85 23.08L179.96 23.08Q179.24 23.08 178.72 23.60Q178.20 24.12 178.20 24.84L178.20 24.84L178.20 45.49ZM247.23 45.49L243.59 45.49L243.59 16.74L229.19 16.74L229.19 13.09L261.59 13.09L261.59 16.74L247.23 16.74L247.23 45.49ZM291.33 45.49L270.18 45.49Q267.93 45.49 266.33 43.90Q264.74 42.30 264.74 40.05L264.74 40.05L264.74 24.84Q264.74 22.59 266.33 20.99Q267.93 19.39 270.18 19.39L270.18 19.39L285.84 19.39Q288.14 19.39 289.73 20.99Q291.33 22.59 291.33 24.84L291.33 24.84L291.33 34.29L268.43 34.29L268.43 40.05Q268.43 40.77 268.94 41.29Q269.46 41.80 270.18 41.80L270.18 41.80L291.33 41.80L291.33 45.49ZM268.43 24.84L268.43 30.60L287.60 30.60L287.60 24.84Q287.60 24.12 287.08 23.60Q286.56 23.08 285.84 23.08L285.84 23.08L270.18 23.08Q269.46 23.08 268.94 23.60Q268.43 24.12 268.43 24.84L268.43 24.84ZM321.57 45.49L300.42 45.49Q298.17 45.49 296.57 43.90Q294.98 42.30 294.98 40.05L294.98 40.05L294.98 24.84Q294.98 22.59 296.57 20.99Q298.17 19.39 300.42 19.39L300.42 19.39L321.48 19.39L321.48 23.08L300.42 23.08Q299.70 23.08 299.18 23.60Q298.67 24.12 298.67 24.84L298.67 24.84L298.67 40.05Q298.67 40.77 299.18 41.29Q299.70 41.80 300.42 41.80L300.42 41.80L321.57 41.80L321.57 45.49ZM329.40 45.49L325.71 45.49L325.71 10.84L329.40 10.84L329.40 19.39L346.86 19.39Q349.07 19.39 350.69 20.99Q352.31 22.59 352.31 24.84L352.31 24.84L352.31 45.49L348.62 45.49L348.62 24.84Q348.62 24.12 348.10 23.60Q347.58 23.08 346.86 23.08L346.86 23.08L331.20 23.08Q330.48 23.08 329.94 23.60Q329.40 24.12 329.40 24.84L329.40 24.84L329.40 45.49Z" transform="translate(0, 0)"></path></g></svg></svg>